<svg id="Capa_1" data-name="Capa 1" xmlns="http://www.w3.org/2000/svg" viewBox="0 0 361.88 140.3"><defs><style>.cls-1{fill:#706f6f;}</style></defs><title>rrgo_portfolio</title><polygon points="204.72 0 160.47 45.44 160.47 94.86 200.75 94.86 200.75 45.44 204.72 41.47 204.72 94.86 160.47 140.3 200.75 140.3 246.19 94.86 246.19 0 204.72 0"/><polygon points="0 45.44 0 94.86 40.28 94.86 40.28 45.44 85.72 0 44.24 0 0 45.44"/><polygon points="79.65 45.44 79.65 94.86 119.93 94.86 119.93 45.44 165.37 0 123.9 0 79.65 45.44"/><polygon points="79.65 45.44 79.65 94.86 119.93 94.86 119.93 45.44 165.37 0 123.9 0 79.65 45.44"/><path d="M361.88,94.86V45.44L317.64,0H276.17V49.42l44.24,45.44h41.47ZM321.61,45.44v9.14l-5.17-5.16V40.28Z"/><path d="M0,120v-7.59H1.16v1.15A3,3,0,0,1,2,112.54a1.36,1.36,0,0,1,.82-.26,2.51,2.51,0,0,1,1.32.41l-.44,1.2a1.79,1.79,0,0,0-.94-.28,1.22,1.22,0,0,0-.76.25,1.45,1.45,0,0,0-.48.71,5,5,0,0,0-.21,1.5v4Z"/><path d="M4.41,116.24a3.92,3.92,0,0,1,1.17-3.12A3.54,3.54,0,0,1,8,112.28a3.44,3.44,0,0,1,2.56,1,3.93,3.93,0,0,1,1,2.84,5.06,5.06,0,0,1-.44,2.3,3.11,3.11,0,0,1-1.28,1.31,3.71,3.71,0,0,1-1.83.46,3.43,3.43,0,0,1-2.58-1A4.1,4.1,0,0,1,4.41,116.24Zm1.32,0a3.22,3.22,0,0,0,.64,2.19,2,2,0,0,0,1.6.72,2,2,0,0,0,1.59-.73,3.25,3.25,0,0,0,.64-2.22,3.15,3.15,0,0,0-.64-2.13A2,2,0,0,0,8,113.34a2,2,0,0,0-1.6.72A3.21,3.21,0,0,0,5.73,116.24Z"/><path d="M14.21,120H13V109.56h1.29v3.74a2.53,2.53,0,0,1,2.08-1,3.16,3.16,0,0,1,1.32.28,2.71,2.71,0,0,1,1,.79,3.71,3.71,0,0,1,.63,1.24,5.12,5.12,0,0,1,.23,1.54,4.36,4.36,0,0,1-1,3,3,3,0,0,1-2.32,1.06,2.42,2.42,0,0,1-2.11-1.12Zm0-3.85a3.92,3.92,0,0,0,.37,2,1.85,1.85,0,0,0,1.64,1,1.84,1.84,0,0,0,1.46-.73,3.33,3.33,0,0,0,.62-2.18,3.44,3.44,0,0,0-.59-2.2,1.81,1.81,0,0,0-1.43-.7,1.85,1.85,0,0,0-1.46.73A3.21,3.21,0,0,0,14.2,116.19Z"/><path d="M26.36,117.59l1.33.17a3.23,3.23,0,0,1-1.17,1.81,3.47,3.47,0,0,1-2.17.64,3.45,3.45,0,0,1-2.64-1,4,4,0,0,1-1-2.87,4.2,4.2,0,0,1,1-3,3.33,3.33,0,0,1,2.56-1.06,3.25,3.25,0,0,1,2.49,1,4.14,4.14,0,0,1,1,2.92v.34H22.07a2.89,2.89,0,0,0,.7,1.92,2.14,2.14,0,0,0,1.59.66,2,2,0,0,0,1.21-.37A2.44,2.44,0,0,0,26.36,117.59Zm-4.22-2.07h4.23a2.5,2.5,0,0,0-.48-1.44,2,2,0,0,0-1.59-.74,2,2,0,0,0-1.49.59A2.31,2.31,0,0,0,22.14,115.52Z"/><path d="M29.29,120v-7.59h1.16v1.15a3,3,0,0,1,.82-1.06,1.36,1.36,0,0,1,.82-.26,2.51,2.51,0,0,1,1.32.41l-.44,1.2a1.79,1.79,0,0,0-.94-.28,1.22,1.22,0,0,0-.76.25,1.45,1.45,0,0,0-.48.71,5,5,0,0,0-.21,1.5v4Z"/><path d="M37,118.89l.18,1.13a4.49,4.49,0,0,1-1,.12,2.31,2.31,0,0,1-1.09-.22,1.31,1.31,0,0,1-.54-.58,4.78,4.78,0,0,1-.16-1.52v-4.37h-.94v-1h.94v-1.88l1.28-.77v2.65H37v1h-1.3v4.44a2.43,2.43,0,0,0,.07.71.65.65,0,0,0,.22.25.88.88,0,0,0,.44.09A5.07,5.07,0,0,0,37,118.89Z"/><path d="M37.76,116.24a3.93,3.93,0,0,1,1.18-3.12,3.53,3.53,0,0,1,2.38-.84,3.4,3.4,0,0,1,2.56,1,3.93,3.93,0,0,1,1,2.84,5.07,5.07,0,0,1-.43,2.3,3.17,3.17,0,0,1-1.28,1.31,3.72,3.72,0,0,1-1.84.46,3.4,3.4,0,0,1-2.57-1A4.06,4.06,0,0,1,37.76,116.24Zm1.33,0a3.27,3.27,0,0,0,.63,2.19,2.06,2.06,0,0,0,1.6.72,2,2,0,0,0,1.6-.73,3.31,3.31,0,0,0,.63-2.22,3.1,3.1,0,0,0-.64-2.13,2,2,0,0,0-1.59-.73,2.06,2.06,0,0,0-1.6.72A3.26,3.26,0,0,0,39.09,116.24Z"/><path d="M50.21,120.67l1.25.18a1.23,1.23,0,0,0,.44.85,2.14,2.14,0,0,0,1.31.35,2.31,2.31,0,0,0,1.38-.35,1.78,1.78,0,0,0,.65-1,8.25,8.25,0,0,0,.1-1.65,2.67,2.67,0,0,1-2.1,1,2.88,2.88,0,0,1-2.43-1.13A4.36,4.36,0,0,1,50,116.2a5.06,5.06,0,0,1,.39-2,3.06,3.06,0,0,1,1.14-1.42,3.1,3.1,0,0,1,1.75-.5,2.73,2.73,0,0,1,2.22,1.08v-.91h1.18V119a6.22,6.22,0,0,1-.36,2.51,2.68,2.68,0,0,1-1.14,1.17,3.91,3.91,0,0,1-1.93.43,3.69,3.69,0,0,1-2.19-.61A2.06,2.06,0,0,1,50.21,120.67Zm1.07-4.56a3.34,3.34,0,0,0,.59,2.18,2,2,0,0,0,3,0,3.18,3.18,0,0,0,.6-2.14,3.12,3.12,0,0,0-.61-2.1,1.93,1.93,0,0,0-1.49-.71,1.87,1.87,0,0,0-1.46.7A3.1,3.1,0,0,0,51.28,116.11Z"/><path d="M63.56,120v-1.12a2.77,2.77,0,0,1-2.41,1.29A3.11,3.11,0,0,1,59.9,120a2.06,2.06,0,0,1-.87-.64,2.45,2.45,0,0,1-.39-1,6.68,6.68,0,0,1-.08-1.2v-4.7h1.28v4.21a7.79,7.79,0,0,0,.08,1.36,1.37,1.37,0,0,0,.52.79,1.53,1.53,0,0,0,1,.29,2.2,2.2,0,0,0,1.09-.29,1.69,1.69,0,0,0,.71-.81,4.08,4.08,0,0,0,.21-1.48v-4.07h1.29V120Z"/><path d="M69.53,118.89l.19,1.13a4.57,4.57,0,0,1-1,.12,2.31,2.31,0,0,1-1.09-.22,1.31,1.31,0,0,1-.54-.58,4.49,4.49,0,0,1-.16-1.52v-4.37H66v-1H67v-1.88l1.28-.77v2.65h1.29v1H68.24v4.44a2.11,2.11,0,0,0,.07.71.58.58,0,0,0,.22.25.88.88,0,0,0,.44.09A4.75,4.75,0,0,0,69.53,118.89Z"/><path d="M70.8,111v-1.48h1.29V111Zm0,9v-7.59h1.29V120Z"/><path d="M79.24,117.59l1.33.17a3.23,3.23,0,0,1-1.17,1.81,3.94,3.94,0,0,1-4.81-.39,4,4,0,0,1-1-2.87,4.16,4.16,0,0,1,1-3,3.33,3.33,0,0,1,2.56-1.06,3.27,3.27,0,0,1,2.49,1,4.14,4.14,0,0,1,1,2.92c0,.08,0,.19,0,.34H74.94a2.94,2.94,0,0,0,.71,1.92,2.12,2.12,0,0,0,1.59.66,2,2,0,0,0,1.21-.37A2.51,2.51,0,0,0,79.24,117.59ZM75,115.52h4.23a2.58,2.58,0,0,0-.48-1.44,2,2,0,0,0-1.6-.74,2,2,0,0,0-1.49.59A2.34,2.34,0,0,0,75,115.52Zm1.38-4,.95-2H79l-1.57,2Z"/><path d="M82.17,120v-7.59h1.16v1.15a3,3,0,0,1,.81-1.06,1.39,1.39,0,0,1,.83-.26,2.57,2.57,0,0,1,1.32.41l-.44,1.2a1.83,1.83,0,0,0-.95-.28,1.19,1.19,0,0,0-.75.25,1.33,1.33,0,0,0-.48.71,5,5,0,0,0-.22,1.5v4Z"/><path d="M87,120v-7.59H88.2v1.15a3,3,0,0,1,.82-1.06,1.36,1.36,0,0,1,.82-.26,2.51,2.51,0,0,1,1.32.41l-.44,1.2a1.79,1.79,0,0,0-.94-.28,1.24,1.24,0,0,0-.76.25,1.45,1.45,0,0,0-.48.71,5,5,0,0,0-.21,1.5v4Z"/><path d="M97.12,117.59l1.33.17a3.22,3.22,0,0,1-1.16,1.81,3.49,3.49,0,0,1-2.17.64,3.45,3.45,0,0,1-2.64-1,4,4,0,0,1-1-2.87,4.16,4.16,0,0,1,1-3A3.31,3.31,0,0,1,95,112.28a3.24,3.24,0,0,1,2.49,1,4.15,4.15,0,0,1,1,2.92c0,.08,0,.19,0,.34H92.83a2.89,2.89,0,0,0,.71,1.92,2.1,2.1,0,0,0,1.58.66,2,2,0,0,0,1.21-.37A2.38,2.38,0,0,0,97.12,117.59Zm-4.22-2.07h4.24a2.58,2.58,0,0,0-.49-1.44,2,2,0,0,0-1.59-.74,2,2,0,0,0-1.49.59A2.35,2.35,0,0,0,92.9,115.52Z"/><path d="M99.39,120v-1l4.83-5.55c-.55,0-1,0-1.45,0h-3.1v-1h6.21v.85l-4.11,4.82L101,119c.57,0,1.11-.07,1.62-.07h3.51V120Z"/><path d="M111.83,123.12V109.38H113v13.74Z"/><path class="cls-1" d="M124.24,120v-1a2.37,2.37,0,0,1-2.12,1.13,3,3,0,0,1-1.67-.5,3.26,3.26,0,0,1-1.18-1.4,4.8,4.8,0,0,1-.42-2.06,5.44,5.44,0,0,1,.38-2.06,3,3,0,0,1,2.83-1.91,2.53,2.53,0,0,1,1.22.29,2.57,2.57,0,0,1,.88.75v-3.76h1.28V120Zm-4.06-3.79a3.3,3.3,0,0,0,.61,2.18,1.85,1.85,0,0,0,1.45.72,1.81,1.81,0,0,0,1.43-.69,3.13,3.13,0,0,0,.59-2.1,3.59,3.59,0,0,0-.6-2.29,1.86,1.86,0,0,0-1.48-.73,1.79,1.79,0,0,0-1.43.7A3.5,3.5,0,0,0,120.18,116.25Z"/><path class="cls-1" d="M132.65,117.59l1.33.17a3.27,3.27,0,0,1-1.16,1.81,3.5,3.5,0,0,1-2.18.64,3.46,3.46,0,0,1-2.64-1,4,4,0,0,1-1-2.87,4.2,4.2,0,0,1,1-3,3.34,3.34,0,0,1,2.56-1.06,3.24,3.24,0,0,1,2.49,1,4.14,4.14,0,0,1,1,2.92v.34h-5.66a2.89,2.89,0,0,0,.71,1.92,2.1,2.1,0,0,0,1.58.66,2,2,0,0,0,1.21-.37A2.44,2.44,0,0,0,132.65,117.59Zm-4.22-2.07h4.24a2.58,2.58,0,0,0-.49-1.44,2,2,0,0,0-1.59-.74,2,2,0,0,0-1.49.59A2.31,2.31,0,0,0,128.43,115.52Z"/><path class="cls-1" d="M135.08,117.77l1.27-.2a1.84,1.84,0,0,0,.6,1.18,2.09,2.09,0,0,0,1.37.4,2,2,0,0,0,1.31-.36,1.06,1.06,0,0,0,.43-.84.77.77,0,0,0-.38-.69,5.26,5.26,0,0,0-1.31-.44,12.75,12.75,0,0,1-2-.61,1.92,1.92,0,0,1-.83-.73,1.85,1.85,0,0,1-.28-1,1.94,1.94,0,0,1,.23-1,2,2,0,0,1,.63-.71,2.51,2.51,0,0,1,.82-.38,4,4,0,0,1,1.11-.15,4.2,4.2,0,0,1,1.57.26,2.18,2.18,0,0,1,1,.69,2.77,2.77,0,0,1,.44,1.18l-1.26.17a1.38,1.38,0,0,0-.5-.92,1.86,1.86,0,0,0-1.16-.32,2.05,2.05,0,0,0-1.26.29.85.85,0,0,0-.38.69.71.71,0,0,0,.16.45,1.18,1.18,0,0,0,.49.34q.19.08,1.14.33a16.38,16.38,0,0,1,1.9.59,2,2,0,0,1,.85.68,1.9,1.9,0,0,1,.3,1.1A2.15,2.15,0,0,1,141,119a2.44,2.44,0,0,1-1.08.88,3.94,3.94,0,0,1-1.6.31,3.58,3.58,0,0,1-2.26-.61A2.84,2.84,0,0,1,135.08,117.77Z"/><path class="cls-1" d="M142.92,111v-1.48h1.29V111Zm0,9v-7.59h1.29V120Z"/><path class="cls-1" d="M145.93,120.67l1.25.18a1.19,1.19,0,0,0,.44.85,2.11,2.11,0,0,0,1.3.35,2.27,2.27,0,0,0,1.38-.35,1.74,1.74,0,0,0,.66-1,7.75,7.75,0,0,0,.09-1.65,2.64,2.64,0,0,1-2.1,1,2.87,2.87,0,0,1-2.42-1.13,4.37,4.37,0,0,1-.86-2.71,5.06,5.06,0,0,1,.39-2,3.15,3.15,0,0,1,1.15-1.42,3.08,3.08,0,0,1,1.75-.5,2.72,2.72,0,0,1,2.21,1.08v-.91h1.19V119a6.22,6.22,0,0,1-.36,2.51,2.68,2.68,0,0,1-1.14,1.17,4,4,0,0,1-1.93.43,3.66,3.66,0,0,1-2.19-.61A2.06,2.06,0,0,1,145.93,120.67Zm1.06-4.56a3.28,3.28,0,0,0,.6,2.18,1.86,1.86,0,0,0,1.48.68,1.89,1.89,0,0,0,1.49-.68,3.18,3.18,0,0,0,.6-2.14,3.12,3.12,0,0,0-.62-2.1,1.92,1.92,0,0,0-1.49-.71,1.88,1.88,0,0,0-1.46.7A3.1,3.1,0,0,0,147,116.11Z"/><path class="cls-1" d="M154.3,120v-7.59h1.16v1.08a2.74,2.74,0,0,1,2.42-1.25,3.29,3.29,0,0,1,1.26.24,2,2,0,0,1,.86.65,2.55,2.55,0,0,1,.4,1,7.21,7.21,0,0,1,.07,1.25V120h-1.29v-4.62a3.45,3.45,0,0,0-.15-1.17,1.24,1.24,0,0,0-.53-.63,1.72,1.72,0,0,0-.9-.23,2.1,2.1,0,0,0-1.41.52,2.57,2.57,0,0,0-.6,2V120Z"/></svg>